<svg id="visual" viewBox="0 0 900 600" width="900" height="600" xmlns="http://www.w3.org/2000/svg" xmlns:xlink="http://www.w3.org/1999/xlink" version="1.1"><rect width="900" height="600" fill="#001829"></rect><g><g transform="translate(629 216)"><path d="M0 -147L139.8 -45.4L86.4 118.9L-86.4 118.9L-139.8 -45.4Z" fill="#297EA6"></path></g><g transform="translate(103 449)"><path d="M0 -104L98.9 -32.1L61.1 84.1L-61.1 84.1L-98.9 -32.1Z" fill="#297EA6"></path></g><g transform="translate(541 591)"><path d="M0 -141L134.1 -43.6L82.9 114.1L-82.9 114.1L-134.1 -43.6Z" fill="#297EA6"></path></g><g transform="translate(226 158)"><path d="M0 -139L132.2 -43L81.7 112.5L-81.7 112.5L-132.2 -43Z" fill="#297EA6"></path></g><g transform="translate(836 571)"><path d="M0 -135L128.4 -41.7L79.4 109.2L-79.4 109.2L-128.4 -41.7Z" fill="#297EA6"></path></g><g transform="translate(890 3)"><path d="M0 -120L114.1 -37.1L70.5 97.1L-70.5 97.1L-114.1 -37.1Z" fill="#297EA6"></path></g></g></svg>